<svg width="105" height="105" viewBox="0 0 105 105" fill="none" xmlns="http://www.w3.org/2000/svg">
<path d="M52.5 26.25C49.2552 26.25 46.0832 27.2122 43.3852 29.015C40.6872 30.8177 38.5844 33.38 37.3426 36.3779C36.1009 39.3757 35.776 42.6745 36.409 45.857C37.042 49.0395 38.6046 51.9628 40.899 54.2572C43.1935 56.5517 46.1168 58.1142 49.2993 58.7473C52.4818 59.3803 55.7806 59.0554 58.7784 57.8137C61.7763 56.5719 64.3386 54.4691 66.1413 51.7711C67.944 49.0731 68.9062 45.9011 68.9062 42.6563C68.9062 38.305 67.1777 34.132 64.101 31.0553C61.0242 27.9785 56.8512 26.25 52.5 26.25Z" fill="black"/>
<path d="M52.5 6.5625C43.4144 6.5625 34.5329 9.25669 26.9785 14.3044C19.4241 19.352 13.5362 26.5265 10.0593 34.9205C6.58238 43.3145 5.67267 52.551 7.44518 61.462C9.21768 70.373 13.5928 78.5582 20.0173 84.9827C26.4418 91.4072 34.627 95.7823 43.538 97.5548C52.449 99.3273 61.6855 98.4176 70.0795 94.9407C78.4735 91.4638 85.648 85.5759 90.6956 78.0215C95.7433 70.4671 98.4375 61.5856 98.4375 52.5C98.4236 40.3209 93.5793 28.6446 84.9674 20.0326C76.3554 11.4207 64.6791 6.5764 52.5 6.5625V6.5625ZM78.7238 81.7884C78.6584 77.4845 76.9048 73.3786 73.841 70.3552C70.7771 67.3319 66.6482 65.6331 62.3438 65.625H42.6563C38.3519 65.6331 34.2229 67.3319 31.159 70.3552C28.0952 73.3786 26.3416 77.4845 26.2763 81.7884C20.3259 76.4753 16.1297 69.4801 14.2434 61.7291C12.357 53.9781 12.8694 45.8369 15.7127 38.3836C18.5561 30.9303 23.5962 24.5164 30.1658 19.9912C36.7353 15.4661 44.5244 13.0431 52.5016 13.0431C60.4789 13.0431 68.268 15.4661 74.8375 19.9912C81.4071 24.5164 86.4472 30.9303 89.2906 38.3836C92.1339 45.8369 92.6463 53.9781 90.7599 61.7291C88.8735 69.4801 84.6774 76.4753 78.727 81.7884H78.7238Z" fill="black"/>
<path d="M89.4 17L93 13.4L96.6 17L98 15.6L94.4 12L98 8.4L96.6 7L93 10.6L89.4 7L88 8.4L91.6 12L88 15.6L89.4 17ZM93 22C91.6167 22 90.3167 21.7373 89.1 21.212C87.8833 20.6873 86.825 19.975 85.925 19.075C85.025 18.175 84.3127 17.1167 83.788 15.9C83.2627 14.6833 83 13.3833 83 12C83 10.6167 83.2627 9.31667 83.788 8.1C84.3127 6.88333 85.025 5.825 85.925 4.925C86.825 4.025 87.8833 3.31233 89.1 2.787C90.3167 2.26233 91.6167 2 93 2C94.3833 2 95.6833 2.26233 96.9 2.787C98.1167 3.31233 99.175 4.025 100.075 4.925C100.975 5.825 101.687 6.88333 102.212 8.1C102.737 9.31667 103 10.6167 103 12C103 13.3833 102.737 14.6833 102.212 15.9C101.687 17.1167 100.975 18.175 100.075 19.075C99.175 19.975 98.1167 20.6873 96.9 21.212C95.6833 21.7373 94.3833 22 93 22Z" fill="black"/>
</svg>
